<?xml version="1.0" standalone="no"?><!DOCTYPE svg PUBLIC "-//W3C//DTD SVG 1.1//EN" "http://www.w3.org/Graphics/SVG/1.1/DTD/svg11.dtd"><svg xmlns:xlink="http://www.w3.org/1999/xlink" version="1.1" x="0" y="0" height="40px" width="40px" viewBox="0 0 24 24" preserveAspectRatio="none" xmlns="http://www.w3.org/2000/svg" style="border-bottom-color:rgb(117, 117, 117);border-left-color:rgb(117, 117, 117);border-right-color:rgb(117, 117, 117);border-top-color:rgb(117, 117, 117);color:rgb(117, 117, 117);font-family:Roboto, RobotoDraft, Helvetica, Arial, sans-serif;height:40px;outline-color:rgb(117, 117, 117);padding-bottom:24px;text-align:center;text-decoration:none solid rgb(117, 117, 117);text-decoration-color:rgb(117, 117, 117);width:40px;column-rule-color:rgb(117, 117, 117);perspective-origin:50% 50%;-webkit-text-emphasis-color:rgb(117, 117, 117);-webkit-text-fill-color:rgb(117, 117, 117);-webkit-text-stroke-color:rgb(117, 117, 117);transform-origin:50% 50%;user-select:none;caret-color:rgb(117, 117, 117);"><path fill="rgb(46%, 46%, 46%)" d="M19,2 L5,2 C3.9,2 3,2.9 3,4 L3,18 C3,19.1 3.9,20 5,20 L9,20 L12,23 L15,20 L19,20 C20.1,20 21,19.1 21,18 L21,4 C21,2.9 20.1,2 19,2 L19,2 Z M13.88,12.88 L12,17 L10.12,12.88 L6,11 L10.12,9.12 L12,5 L13.88,9.12 L18,11 L13.88,12.88 L13.88,12.88 Z" style="border-bottom-color:rgb(117, 117, 117);border-left-color:rgb(117, 117, 117);border-right-color:rgb(117, 117, 117);border-top-color:rgb(117, 117, 117);color:rgb(117, 117, 117);font-family:Roboto, RobotoDraft, Helvetica, Arial, sans-serif;height:auto;outline-color:rgb(117, 117, 117);overflow-x:visible;overflow-y:visible;text-align:center;text-decoration:none solid rgb(117, 117, 117);text-decoration-color:rgb(117, 117, 117);width:auto;column-rule-color:rgb(117, 117, 117);perspective-origin:50% 50%;-webkit-text-emphasis-color:rgb(117, 117, 117);-webkit-text-fill-color:rgb(117, 117, 117);-webkit-text-stroke-color:rgb(117, 117, 117);transform-origin:0px 0px;user-select:none;fill:rgb(117, 117, 117);d:path('M 19 2 L 5 2 C 3.9 2 3 2.9 3 4 L 3 18 C 3 19.1 3.9 20 5 20 L 9 20 L 12 23 L 15 20 L 19 20 C 20.1 20 21 19.1 21 18 L 21 4 C 21 2.9 20.1 2 19 2 L 19 2 Z M 13.88 12.88 L 12 17 L 10.12 12.88 L 6 11 L 10.12 9.12 L 12 5 L 13.88 9.12 L 18 11 L 13.88 12.88 L 13.88 12.88 Z');caret-color:rgb(117, 117, 117);"/></svg>